<svg xmlns="http://www.w3.org/2000/svg" version="1.1" xmlns:xlink="http://www.w3.org/1999/xlink" xmlns:svgjs="http://svgjs.dev/svgjs" width="2000" height="2373" viewBox="0 0 2000 2373"><g transform="matrix(1,0,0,1,-0.36351639595147844,-3.8274193548388666)"><svg viewBox="0 0 209 248" data-background-color="#fafafa" preserveAspectRatio="xMidYMid meet" height="2373" width="2000" xmlns="http://www.w3.org/2000/svg" xmlns:xlink="http://www.w3.org/1999/xlink"><g id="tight-bounds" transform="matrix(1,0,0,1,0.038020730782307055,0.4000000000000057)"><svg viewBox="0 0 208.92388028933786 247.2" height="247.2" width="208.92388028933786"><g><svg></svg></g><g><svg viewBox="0 0 208.92388028933786 247.2" height="247.2" width="208.92388028933786"><g transform="matrix(1,0,0,1,0,47.215199999999996)"><svg viewBox="0 0 208.92388028933786 152.7696" height="152.7696" width="208.92388028933786"><g><svg viewBox="0 0 208.92388028933786 152.7696" height="152.7696" width="208.92388028933786"><g><svg viewBox="0 0 244.43135999999998 178.7334269445008" height="152.7696" width="208.92388028933786"><g transform="matrix(1,0,0,1,0,133.0206645111387)"><svg viewBox="0 0 244.43135999999998 45.71276243336208" height="45.71276243336208" width="244.43135999999998"><g id="textblocktransform"><svg viewBox="0 0 244.43135999999998 45.71276243336208" height="45.71276243336208" width="244.43135999999998" id="textblock"><g><svg viewBox="0 0 244.43135999999998 45.71276243336208" height="45.71276243336208" width="244.43135999999998"><g transform="matrix(1,0,0,1,0,0)"><svg width="244.43135999999998" viewBox="0.323125 -37.0125 242.258238636298 45.3125" height="45.71276243336208" data-palette-color="#ffffff"><path d="M23.55-30.5L23.55-30.5Q23.5-29.9 23.33-29.08 23.15-28.25 22.9-27.53 22.65-26.8 22.4-26.3 22.15-25.8 22-25.9L22-25.9Q21.95-25.9 21.95-26.15 21.95-26.4 21.95-26.73 21.95-27.05 22-27.35 22.05-27.65 22.05-27.8L22.05-27.8Q22.2-28.6 22.25-29.3 22.3-30 22.4-30.75L22.4-30.75Q22.5-31.7 22.53-32.55 22.55-33.4 22.4-34.3L22.4-34.3Q22.4-34.4 22.35-34.55 22.3-34.7 22.4-34.7L22.4-34.7Q22.55-34.7 22.75-34.48 22.95-34.25 23-34.15L23-34.15Q23.3-33.55 23.48-32.75 23.65-31.95 23.55-30.5ZM24.2-34L24.2-34Q25.05-32 25.23-30.03 25.4-28.05 25.13-26.08 24.85-24.1 24.18-22.15 23.5-20.2 22.65-18.35L22.65-18.35Q21.5-15.85 20.23-13.45 18.95-11.05 17.75-8.75 16.55-6.45 15.53-4.28 14.5-2.1 13.9 0L13.9 0Q13.8 0.25 13.68 0.2 13.55 0.15 13.55 0L13.55 0Q13.45-2.4 14.25-4.83 15.05-7.25 16.28-9.7 17.5-12.15 18.93-14.63 20.35-17.1 21.5-19.65L21.5-19.65Q22.25-21.25 22.85-23 23.45-24.75 23.83-26.6 24.2-28.45 24.28-30.28 24.35-32.1 24-33.85L24-33.85Q23.9-34.3 24-34.25L24-34.25Q24.05-34.25 24.2-34ZM7.95-14.45L7.95-14.45Q7.95-14.3 7.93-13.83 7.9-13.35 7.75-13.35L7.75-13.35Q7.65-13.3 7.5-13.73 7.35-14.15 7.25-14.4L7.25-14.4Q7.05-15.05 6.8-15.98 6.55-16.9 6.33-17.88 6.1-18.85 5.93-19.8 5.75-20.75 5.7-21.45L5.7-21.45Q5.65-21.8 5.5-22.83 5.35-23.85 5.1-25.25 4.85-26.65 4.53-28.25 4.2-29.85 3.83-31.33 3.45-32.8 3.05-33.98 2.65-35.15 2.25-35.7L2.25-35.7Q2-36.05 2.1-36.15L2.1-36.15Q2.2-36.25 2.35-36.13 2.5-36 2.6-35.9L2.6-35.9Q3.4-35.3 4.13-34.2 4.85-33.1 5.45-31.85 6.05-30.6 6.45-29.28 6.85-27.95 7-26.9L7-26.9Q7.45-23.95 7.65-20.65 7.85-17.35 7.95-14.45ZM11.1-7.4L11.1-7.4Q10.1-10.75 9.5-14.3 8.9-17.85 8.45-21.45L8.45-21.45Q8.1-24.1 7.65-26.75 7.2-29.4 6.25-32.25L6.25-32.25Q6.15-32.5 6.15-32.52 6.15-32.55 6.25-32.6L6.25-32.6Q6.35-32.6 6.6-32.35L6.6-32.35Q7.65-31.3 8.38-29.1 9.1-26.9 9.63-24.43 10.15-21.95 10.5-19.63 10.85-17.3 11.1-15.9L11.1-15.9Q11.35-14.75 11.53-13.55 11.7-12.35 11.8-11.15L11.8-11.15Q12.15-12.5 12.75-13.93 13.35-15.35 13.98-16.7 14.6-18.05 15.23-19.23 15.85-20.4 16.25-21.25L16.25-21.25Q17.3-23.5 18.65-25.78 20-28.05 21.15-29.6L21.15-29.6Q21.6-30.2 21.65-30.2L21.65-30.2Q21.75-30.1 21.68-29.88 21.6-29.65 21.5-29.4L21.5-29.4Q20.5-25.8 18.78-22.4 17.05-19 15.3-15.55L15.3-15.55Q14.3-13.65 13.3-11.7 12.3-9.75 11.8-7.35L11.8-7.35Q11.7-6.8 11.53-6.68 11.35-6.55 11.1-7.4ZM12.65 0L12.65 0Q12.8 0.1 12.73 0.13 12.65 0.15 12.5 0.05L12.5 0.05Q10.55-0.85 9.15-2.43 7.75-4 6.78-5.95 5.8-7.9 5.2-10.1 4.6-12.3 4.2-14.45L4.2-14.45Q3.65-17.45 3.35-20.45 3.05-23.45 2.68-26.33 2.3-29.2 1.8-31.83 1.3-34.45 0.4-36.65L0.4-36.65Q0.35-36.75 0.33-36.83 0.3-36.9 0.4-37L0.4-37Q0.45-37.05 0.55-36.9 0.65-36.75 0.7-36.65L0.7-36.65Q2.25-34.55 3.03-31.88 3.8-29.2 4.2-26.23 4.6-23.25 4.88-20.13 5.15-17 5.7-14.05L5.7-14.05Q6.05-12.15 6.65-10.18 7.25-8.2 8.1-6.33 8.95-4.45 10.08-2.83 11.2-1.2 12.65 0ZM12.4-1.25L12.4-1.25Q12.1-1.55 11.63-2.05 11.15-2.55 10.75-3.1L10.75-3.1Q10.45-3.6 10.1-4.42 9.75-5.25 9.47-6.05 9.2-6.85 9.08-7.48 8.95-8.1 9.1-8.15L9.1-8.15Q9.15-8.15 9.33-7.93 9.5-7.7 9.65-7.4 9.8-7.1 9.95-6.83 10.1-6.55 10.2-6.45L10.2-6.45Q10.6-5.75 10.9-5.18 11.2-4.6 11.45-3.95L11.45-3.95Q11.75-3.3 12.08-2.83 12.4-2.35 12.45-2.4L12.45-2.4Q12.5-2.4 12.48-2.68 12.45-2.95 12.43-3.3 12.4-3.65 12.38-3.98 12.35-4.3 12.35-4.45L12.35-4.45Q12.25-6.35 12.68-7.85 13.1-9.35 13.65-10.6L13.65-10.6Q14.8-13.15 16.35-15.7 17.9-18.25 19.5-20.5L19.5-20.5Q19.6-20.6 19.9-20.95 20.2-21.3 20.3-21.25L20.3-21.25Q20.45-21.2 20.33-20.78 20.2-20.35 20.15-20.2L20.15-20.2Q19.95-19.6 19.63-18.8 19.3-18 18.95-17.13 18.6-16.25 18.23-15.45 17.85-14.65 17.55-14.1L17.55-14.1Q17.4-13.8 17-12.95 16.6-12.1 16.1-10.88 15.6-9.65 15.05-8.25 14.5-6.85 14.03-5.53 13.55-4.2 13.25-3.1 12.95-2 12.95-1.35L12.95-1.35Q12.95-1 12.8-1L12.8-1Q12.65-1 12.4-1.25ZM31.7-16.5L31.7-16.5Q31.85-17.15 31.87-18 31.9-18.85 31.75-19.75 31.6-20.65 31.22-21.48 30.85-22.3 30.25-22.9L30.25-22.9Q29.95-23.1 29.9-23.1L29.9-23.1Q29.7-23.1 29.9-22.8L29.9-22.8Q30.2-22.15 30.12-20.78 30.05-19.4 29.8-17.93 29.55-16.45 29.27-15.28 29-14.1 28.95-13.85L28.95-13.85Q28.6-12.95 28.32-11.6 28.05-10.25 28.05-9.4L28.05-9.4Q28-9.3 28-9 28-8.7 28.15-8.65L28.15-8.65Q28.2-8.65 28.35-8.9 28.5-9.15 28.6-9.25L28.6-9.25Q29.5-10.85 30.32-12.75 31.15-14.65 31.7-16.5ZM31.9-8.95L31.9-8.95Q32.1-9.85 32.55-11.28 33-12.7 33.3-14.23 33.6-15.75 33.6-17.23 33.6-18.7 33-19.65L33-19.65Q32.8-19.85 32.7-19.85L32.7-19.85Q32.6-19.85 32.65-19.65L32.65-19.65Q32.65-17.75 32.22-16.13 31.8-14.5 31.3-12.95L31.3-12.95Q30.45-10.4 29.75-7.98 29.05-5.55 29.15-3L29.15-3Q29.15-2.85 29.17-2.68 29.2-2.5 29.35-2.5L29.35-2.5Q29.45-2.5 29.5-2.6 29.55-2.7 29.65-2.9L29.65-2.9Q30.15-4.1 30.8-5.73 31.45-7.35 31.9-8.95ZM28.35 0L28.35 0Q27.4-1 26.9-2.23 26.4-3.45 26.2-4.73 26-6 26.1-7.3 26.2-8.6 26.5-9.75L26.5-9.75Q26.95-11.55 27.65-13.35 28.35-15.15 28.85-16.93 29.35-18.7 29.42-20.43 29.5-22.15 28.7-23.8L28.7-23.8Q28.55-24.05 28.5-24.05L28.5-24.05Q28.45-24.05 28.45-23.98 28.45-23.9 28.5-23.85L28.5-23.85Q28.65-22.35 28.3-20.75 27.95-19.15 27.4-17.48 26.85-15.8 26.17-14.03 25.5-12.25 25.05-10.4L25.05-10.4Q24.7-9.05 24.57-7.65 24.45-6.25 24.75-4.88 25.05-3.5 25.85-2.25 26.65-1 28.15 0.05L28.15 0.05Q28.25 0.15 28.4 0.18 28.55 0.2 28.35 0ZM28.75-1.9L28.75-1.9Q28.6-2.3 28.42-2.9 28.25-3.5 28.15-4.05L28.15-4.05Q28.05-4.25 27.9-4.8 27.75-5.35 27.65-5.35L27.65-5.35Q27.45-5.35 27.37-5 27.3-4.65 27.3-4.13 27.3-3.6 27.37-3.03 27.45-2.45 27.6-2.05L27.6-2.05Q27.9-1.05 28.32-0.65 28.75-0.25 29.45 0L29.45 0Q29.75 0.15 29.9 0.15L29.9 0.15Q29.95 0.15 29.92 0.08 29.9 0 29.85 0L29.85 0Q29.5-0.4 29.22-0.85 28.95-1.3 28.75-1.9ZM32.65-27.75L32.65-27.75Q32.4-27.75 31.87-27.83 31.35-27.9 31.35-28.3L31.35-28.3Q31.35-28.45 31.8-28.68 32.25-28.9 32.8-29.33 33.35-29.75 33.8-30.43 34.25-31.1 34.25-32.15L34.25-32.15Q34.25-33.45 33.75-34.1L33.75-34.1Q33.65-34.25 33.5-34.43 33.35-34.6 33.4-34.65L33.4-34.65Q33.5-34.65 33.62-34.58 33.75-34.5 33.8-34.45L33.8-34.45Q34.8-33.9 35.32-33.02 35.85-32.15 35.85-31.35L35.85-31.35Q35.85-29.75 35.1-28.75 34.35-27.75 32.65-27.75ZM30.8-29.75L30.8-29.75Q30.2-29.5 30.2-30.05L30.2-30.05Q30.2-30.45 30.5-30.83 30.8-31.2 31.07-31.65 31.35-32.1 31.45-32.68 31.55-33.25 31.15-34.1L31.15-34.1Q31.05-34.35 30.8-34.65 30.55-34.95 30.65-35L30.65-35Q30.75-35.05 31.07-34.93 31.4-34.8 31.5-34.75L31.5-34.75Q32.35-34.35 32.77-33.55 33.2-32.75 33.2-32.15L33.2-32.15Q33.2-31.2 32.42-30.58 31.65-29.95 30.8-29.75ZM29.35-32.45L29.35-32.45Q29.35-32.7 29.5-33.02 29.65-33.35 30-33.35L30-33.35Q30.25-33.35 30.4-33.02 30.55-32.7 30.55-32.45L30.55-32.45Q30.55-32.25 30.4-31.93 30.25-31.6 30-31.6L30-31.6Q29.65-31.6 29.5-31.9 29.35-32.2 29.35-32.45ZM39.95-18.45L39.95-18.45Q40-18.9 40.25-19.53 40.5-20.15 40.92-20.73 41.34-21.3 41.95-21.78 42.55-22.25 43.3-22.4L43.3-22.4Q44.9-22.7 45.95-22.2 47-21.7 47.55-21.05L47.55-21.05Q47.75-20.75 47.7-20.7L47.7-20.7Q47.59-20.6 47.34-20.75L47.34-20.75Q47.05-20.95 46.37-21.1 45.7-21.25 44.92-21.18 44.15-21.1 43.42-20.7 42.7-20.3 42.25-19.4L42.25-19.4Q41.84-18.55 41.7-17.65 41.55-16.75 41.52-15.98 41.5-15.2 41.55-14.65 41.59-14.1 41.59-13.9L41.59-13.9Q41.7-13.35 41.77-12.53 41.84-11.7 41.84-10.85 41.84-10 41.8-9.18 41.75-8.35 41.59-7.75L41.59-7.75Q41.55-7.6 41.47-7.25 41.4-6.9 41.3-6.9L41.3-6.9Q41.05-6.9 41.05-7.25 41.05-7.6 41.05-7.75L41.05-7.75Q40.95-9 40.7-10.28 40.45-11.55 40.22-12.9 40-14.25 39.9-15.63 39.8-17 39.95-18.45ZM38.2-8.55L38.2-8.55Q38.25-9.55 38.02-11.38 37.8-13.2 37.84-15.6L37.84-15.6Q37.9-16.85 38.09-18.18 38.3-19.5 39.05-20.8L39.05-20.8Q39.84-22.2 41.07-22.88 42.3-23.55 43.2-23.5L43.2-23.5Q43.34-23.5 43.5-23.5 43.65-23.5 43.65-23.45L43.65-23.45Q43.65-23.35 43.59-23.38 43.55-23.4 43.25-23.3L43.25-23.3Q42.34-23.05 41.65-22.48 40.95-21.9 40.45-21.15 39.95-20.4 39.65-19.6 39.34-18.8 39.3-18.15L39.3-18.15Q39-15.4 39.34-13.35L39.34-13.35Q39.59-11.7 39.75-9.93 39.9-8.15 39.62-6.68 39.34-5.2 38.57-4.23 37.8-3.25 36.2-3.15L36.2-3.15Q36.05-3.15 35.82-3.18 35.59-3.2 35.59-3.3L35.59-3.3Q35.59-3.4 36.05-3.65L36.05-3.65Q37.34-4.25 37.75-5.4 38.15-6.55 38.2-8.55ZM32.9-2.65L32.9-2.65Q33.59-1.55 35.12-1.03 36.65-0.5 38.75-1.1L38.75-1.1Q39.8-1.4 40.59-2.15 41.4-2.9 41.92-3.83 42.45-4.75 42.72-5.75 43-6.75 43.05-7.6L43.05-7.6Q43.09-9 42.97-10.35 42.84-11.7 42.67-12.98 42.5-14.25 42.37-15.45 42.25-16.65 42.34-17.8L42.34-17.8Q42.45-19.05 43.05-19.7 43.65-20.35 44.52-20.53 45.4-20.7 46.34-20.4 47.3-20.1 48.09-19.45L48.09-19.45Q48.3-19.35 48.25-19.2L48.25-19.2Q48.25-19.1 48.15-19.15 48.05-19.2 47.95-19.25L47.95-19.25Q46.09-19.85 45.07-19.6 44.05-19.35 43.95-17.8L43.95-17.8Q43.84-16 44.22-13.58 44.59-11.15 44.5-8.2L44.5-8.2Q44.55-7.2 44.27-5.9 44-4.6 43.37-3.38 42.75-2.15 41.72-1.2 40.7-0.25 39.3 0L39.3 0Q36.65 0.4 35.07-0.3 33.5-1 32.8-2.45L32.8-2.45Q32.7-2.75 32.7-2.8L32.7-2.8 32.75-2.8Q32.75-2.8 32.9-2.65ZM35.09-2.65L35.09-2.65Q36.05-2.4 37.4-2.45L37.4-2.45Q37.84-2.5 38.5-2.7 39.15-2.9 39.2-2.8L39.2-2.8Q39.34-2.6 38.9-2.3 38.45-2 37.75-1.78 37.05-1.55 36.3-1.48 35.55-1.4 35.05-1.6L35.05-1.6Q34.09-2 33.67-2.48 33.25-2.95 32.9-3.65L32.9-3.65 32.8-3.85Q32.7-4.05 32.75-4.1L32.75-4.1Q32.8-4.15 32.9-4.1L32.9-4.1Q32.95-4.05 32.95-4L32.95-4Q33.55-3.45 33.97-3.18 34.4-2.9 35.09-2.65ZM55.59-16.5L55.59-16.5Q55.74-17.15 55.77-18 55.79-18.85 55.64-19.75 55.49-20.65 55.12-21.48 54.74-22.3 54.14-22.9L54.14-22.9Q53.84-23.1 53.79-23.1L53.79-23.1Q53.59-23.1 53.79-22.8L53.79-22.8Q54.09-22.15 54.02-20.78 53.94-19.4 53.69-17.93 53.44-16.45 53.17-15.28 52.89-14.1 52.84-13.85L52.84-13.85Q52.49-12.95 52.22-11.6 51.94-10.25 51.94-9.4L51.94-9.4Q51.89-9.3 51.89-9 51.89-8.7 52.04-8.65L52.04-8.65Q52.09-8.65 52.24-8.9 52.39-9.15 52.49-9.25L52.49-9.25Q53.39-10.85 54.22-12.75 55.04-14.65 55.59-16.5ZM55.79-8.95L55.79-8.95Q55.99-9.85 56.44-11.28 56.89-12.7 57.19-14.23 57.49-15.75 57.49-17.23 57.49-18.7 56.89-19.65L56.89-19.65Q56.69-19.85 56.59-19.85L56.59-19.85Q56.49-19.85 56.54-19.65L56.54-19.65Q56.54-17.75 56.12-16.13 55.69-14.5 55.19-12.95L55.19-12.95Q54.34-10.4 53.64-7.98 52.94-5.55 53.04-3L53.04-3Q53.04-2.85 53.07-2.68 53.09-2.5 53.24-2.5L53.24-2.5Q53.34-2.5 53.39-2.6 53.44-2.7 53.54-2.9L53.54-2.9Q54.04-4.1 54.69-5.73 55.34-7.35 55.79-8.95ZM52.24 0L52.24 0Q51.29-1 50.79-2.23 50.29-3.45 50.09-4.73 49.89-6 49.99-7.3 50.09-8.6 50.39-9.75L50.39-9.75Q50.84-11.55 51.54-13.35 52.24-15.15 52.74-16.93 53.24-18.7 53.32-20.43 53.39-22.15 52.59-23.8L52.59-23.8Q52.44-24.05 52.39-24.05L52.39-24.05Q52.34-24.05 52.34-23.98 52.34-23.9 52.39-23.85L52.39-23.85Q52.54-22.35 52.19-20.75 51.84-19.15 51.29-17.48 50.74-15.8 50.07-14.03 49.39-12.25 48.94-10.4L48.94-10.4Q48.59-9.05 48.47-7.65 48.34-6.25 48.64-4.88 48.94-3.5 49.74-2.25 50.54-1 52.04 0.05L52.04 0.05Q52.14 0.15 52.29 0.18 52.44 0.2 52.24 0ZM52.64-1.9L52.64-1.9Q52.49-2.3 52.32-2.9 52.14-3.5 52.04-4.05L52.04-4.05Q51.94-4.25 51.79-4.8 51.64-5.35 51.54-5.35L51.54-5.35Q51.34-5.35 51.27-5 51.19-4.65 51.19-4.13 51.19-3.6 51.27-3.03 51.34-2.45 51.49-2.05L51.49-2.05Q51.79-1.05 52.22-0.65 52.64-0.25 53.34 0L53.34 0Q53.64 0.15 53.79 0.15L53.79 0.15Q53.84 0.15 53.82 0.08 53.79 0 53.74 0L53.74 0Q53.39-0.4 53.12-0.85 52.84-1.3 52.64-1.9ZM56.54-27.75L56.54-27.75Q56.29-27.75 55.77-27.83 55.24-27.9 55.24-28.3L55.24-28.3Q55.24-28.45 55.69-28.68 56.14-28.9 56.69-29.33 57.24-29.75 57.69-30.43 58.14-31.1 58.14-32.15L58.14-32.15Q58.14-33.45 57.64-34.1L57.64-34.1Q57.54-34.25 57.39-34.43 57.24-34.6 57.29-34.65L57.29-34.65Q57.39-34.65 57.52-34.58 57.64-34.5 57.69-34.45L57.69-34.45Q58.69-33.9 59.22-33.02 59.74-32.15 59.74-31.35L59.74-31.35Q59.74-29.75 58.99-28.75 58.24-27.75 56.54-27.75ZM54.69-29.75L54.69-29.75Q54.09-29.5 54.09-30.05L54.09-30.05Q54.09-30.45 54.39-30.83 54.69-31.2 54.97-31.65 55.24-32.1 55.34-32.68 55.44-33.25 55.04-34.1L55.04-34.1Q54.94-34.35 54.69-34.65 54.44-34.95 54.54-35L54.54-35Q54.64-35.05 54.97-34.93 55.29-34.8 55.39-34.75L55.39-34.75Q56.24-34.35 56.67-33.55 57.09-32.75 57.09-32.15L57.09-32.15Q57.09-31.2 56.32-30.58 55.54-29.95 54.69-29.75ZM53.24-32.45L53.24-32.45Q53.24-32.7 53.39-33.02 53.54-33.35 53.89-33.35L53.89-33.35Q54.14-33.35 54.29-33.02 54.44-32.7 54.44-32.45L54.44-32.45Q54.44-32.25 54.29-31.93 54.14-31.6 53.89-31.6L53.89-31.6Q53.54-31.6 53.39-31.9 53.24-32.2 53.24-32.45ZM74.49-13.85L74.49-13.85Q74.64-15.2 74.54-16.7 74.44-18.2 73.92-19.48 73.39-20.75 72.31-21.6 71.24-22.45 69.49-22.45L69.49-22.45Q67.14-22.45 65.39-21.18 63.64-19.9 62.39-18.03 61.14-16.15 60.44-14.03 59.74-11.9 59.54-10.15L59.54-10.15Q59.24-7.75 59.47-6 59.69-4.25 60.29-3.13 60.89-2 61.82-1.45 62.74-0.9 63.84-0.9L63.84-0.9Q65.39-0.85 67.12-1.78 68.84-2.7 70.34-4.38 71.84-6.05 72.97-8.47 74.09-10.9 74.49-13.85ZM58.39-10.4L58.39-10.4Q58.59-12.4 59.39-14.8 60.19-17.2 61.62-19.25 63.04-21.3 65.04-22.68 67.04-24.05 69.69-24.05L69.69-24.05Q71.69-24.05 72.99-23.1 74.29-22.15 74.99-20.68 75.69-19.2 75.89-17.48 76.09-15.75 75.89-14.2L75.89-14.2Q75.44-10.6 74.14-7.95 72.84-5.3 71.09-3.53 69.34-1.75 67.39-0.88 65.44 0 63.64 0L63.64 0Q62.29 0 61.22-0.6 60.14-1.2 59.42-2.48 58.69-3.75 58.42-5.73 58.14-7.7 58.39-10.4ZM63.99-3.35L63.99-3.35Q63.74-3.35 63.49-3.53 63.24-3.7 63.09-3.95 62.94-4.2 62.89-4.45 62.84-4.7 63.09-4.8L63.09-4.8Q63.24-4.85 63.49-4.45 63.74-4.05 64.04-4.05L64.04-4.05Q64.54-4.05 65.22-4.7 65.89-5.35 66.52-6.23 67.14-7.1 67.62-7.95 68.09-8.8 68.29-9.2L68.29-9.2Q68.49-9.6 68.69-10.23 68.89-10.85 69.06-11.5 69.24-12.15 69.37-12.78 69.49-13.4 69.54-13.85L69.54-13.85Q69.79-16.1 69.44-17.32 69.09-18.55 68.29-18.55L68.29-18.55Q67.69-18.55 67.04-18.18 66.39-17.8 65.81-17.2 65.24-16.6 64.79-15.88 64.34-15.15 64.14-14.4L64.14-14.4Q63.89-13.55 63.79-13.55L63.79-13.55Q63.64-13.55 63.64-14.4L63.64-14.4Q63.79-15.35 64.29-16.28 64.79-17.2 65.54-17.93 66.29-18.65 67.19-19.13 68.09-19.6 69.04-19.6L69.04-19.6Q69.99-19.6 70.47-18.93 70.94-18.25 71.14-17.28 71.34-16.3 71.31-15.28 71.29-14.25 71.19-13.65L71.19-13.65Q70.99-12.3 70.56-11.03 70.14-9.75 69.54-8.45L69.54-8.45Q69.24-7.85 68.64-6.98 68.04-6.1 67.27-5.3 66.49-4.5 65.62-3.93 64.74-3.35 63.99-3.35ZM65.59-2.4L65.59-2.4Q65.64-2.1 65.12-1.9 64.59-1.7 64.04-1.7L64.04-1.7Q62.49-1.75 61.67-2.7 60.84-3.65 60.52-4.95 60.19-6.25 60.22-7.65 60.24-9.05 60.34-10L60.34-10Q60.54-11.65 61.14-13.7 61.74-15.75 62.84-17.55 63.94-19.35 65.54-20.58 67.14-21.8 69.34-21.8L69.34-21.8Q70.79-21.8 71.67-21.05 72.54-20.3 72.97-19.2 73.39-18.1 73.47-16.82 73.54-15.55 73.39-14.5L73.39-14.5Q73.29-13.35 73.04-12.4 72.79-11.45 72.34-10.3L72.34-10.3Q72.19-9.95 71.94-9.5 71.69-9.05 71.39-9.1L71.39-9.1Q71.24-9.15 71.31-9.5 71.39-9.85 71.52-10.38 71.64-10.9 71.79-11.48 71.94-12.05 71.99-12.55L71.99-12.55Q72.09-13.4 72.12-14.68 72.14-15.95 71.92-17.15 71.69-18.35 71.09-19.2 70.49-20.05 69.29-20.05L69.29-20.05Q67.54-20.05 66.06-18.93 64.59-17.8 63.49-16.18 62.39-14.55 61.72-12.78 61.04-11 60.89-9.65L60.89-9.65Q60.79-8.85 60.84-7.65 60.89-6.45 61.22-5.28 61.54-4.1 62.29-3.25 63.04-2.4 64.34-2.35L64.34-2.35Q64.74-2.3 65.12-2.43 65.49-2.55 65.59-2.4ZM93.64-17.95L93.64-17.95Q93.74-16.4 93.44-14.98 93.14-13.55 92.69-12.35L92.69-12.35Q92.59-12.1 92.36-11.8 92.14-11.5 91.94-11.6L91.94-11.6Q91.84-11.6 91.89-11.95 91.94-12.3 91.94-12.45L91.94-12.45Q91.99-13 92.01-13.83 92.04-14.65 92.04-15.5 92.04-16.35 91.96-17.13 91.89-17.9 91.74-18.45L91.74-18.45Q91.29-20.05 90.31-20.23 89.34-20.4 88.34-19.7 87.34-19 86.44-17.75 85.54-16.5 85.24-15.3L85.24-15.3Q85.54-15.75 86.01-16.38 86.49-17 87.09-17.57 87.69-18.15 88.36-18.53 89.04-18.9 89.64-18.85L89.64-18.85Q90.29-18.8 90.56-18.15 90.84-17.5 90.89-16.55 90.94-15.6 90.79-14.5 90.64-13.4 90.44-12.45L90.44-12.45Q90.09-10.9 89.84-9.25 89.59-7.6 89.66-6.03 89.74-4.45 90.21-2.98 90.69-1.5 91.84-0.25L91.84-0.25Q91.94-0.1 91.99 0 92.04 0.1 91.74-0.05L91.74-0.05Q90.44-0.8 89.66-1.8 88.89-2.8 88.49-3.95 88.09-5.1 88.01-6.35 87.94-7.6 88.04-8.85L88.04-8.85Q88.24-10.65 88.64-12 89.04-13.35 89.24-15.05L89.24-15.05Q89.34-16.1 89.09-16.43 88.84-16.75 88.49-16.8L88.49-16.8Q87.99-16.85 87.36-16.28 86.74-15.7 86.06-14.65 85.39-13.6 84.76-12.2 84.14-10.8 83.69-9.25L83.69-9.25Q83.29-7.7 82.71-6.03 82.14-4.35 81.64-3.15L81.64-3.15Q81.44-2.7 81.34-2.7L81.34-2.7Q81.24-2.7 81.16-2.9 81.09-3.1 81.09-3.2L81.09-3.2Q80.89-5.7 81.54-8.15 82.19-10.6 83.04-13.1L83.04-13.1Q83.54-14.65 83.94-15.85 84.34-17.05 84.34-18.9L84.34-18.9Q84.34-19.7 84.74-20.58 85.14-21.45 85.91-22.18 86.69-22.9 87.84-23.35 88.99-23.8 90.44-23.75L90.44-23.75Q92.84-23.7 94.14-22.63 95.44-21.55 95.96-19.9 96.49-18.25 96.41-16.32 96.34-14.4 95.99-12.6L95.99-12.6Q95.69-11.25 95.29-10.15 94.89-9.05 94.44-8.1 93.99-7.15 93.59-6.3 93.19-5.45 92.94-4.6L92.94-4.6Q92.89-4.45 92.84-4.28 92.79-4.1 92.69-4.1L92.69-4.1Q92.59-4.1 92.54-4.3 92.49-4.5 92.49-4.75L92.49-4.75Q92.39-6.45 92.84-8.03 93.29-9.6 93.79-11.28 94.29-12.95 94.54-14.8 94.79-16.65 94.34-18.9L94.34-18.9Q93.89-21.3 92.14-22.1 90.39-22.9 88.14-22L88.14-22Q87.84-21.85 87.34-21.55 86.84-21.25 86.36-20.75 85.89-20.25 85.49-19.58 85.09-18.9 84.99-18.1L84.99-18.1Q85.59-19 86.39-19.8 87.19-20.6 88.09-21.08 88.99-21.55 89.91-21.65 90.84-21.75 91.74-21.3L91.74-21.3Q92.79-20.75 93.19-19.78 93.59-18.8 93.64-17.95ZM83.44-16.6L83.44-16.6Q82.89-14.7 81.96-12.85 81.04-11 80.44-9.3L80.44-9.3Q80.39-9.2 80.26-8.93 80.14-8.65 79.94-8.7L79.94-8.7Q79.84-8.75 79.81-9.03 79.79-9.3 79.79-9.45L79.79-9.45Q79.79-10.25 80.06-11.58 80.34-12.9 80.64-13.75L80.64-13.75Q80.74-14.05 81.01-15.28 81.29-16.5 81.51-17.95 81.74-19.4 81.81-20.75 81.89-22.1 81.54-22.7L81.54-22.7Q81.34-23.05 81.54-23.05L81.54-23.05Q81.69-23.05 81.94-22.8L81.94-22.8Q82.54-22.25 82.91-21.45 83.29-20.65 83.46-19.78 83.64-18.9 83.61-18.05 83.59-17.2 83.44-16.6ZM93.64-0.05L93.64-0.05Q93.54 0 93.24-0.1L93.24-0.1Q93.09-0.15 92.99-0.2L92.99-0.2Q92.29-0.65 91.79-1.23 91.29-1.8 90.79-3.2L90.79-3.2Q90.64-3.7 90.56-4.48 90.49-5.25 90.54-6 90.59-6.75 90.71-7.28 90.84-7.8 91.09-7.8L91.09-7.8Q91.19-7.8 91.31-7.23 91.44-6.65 91.56-5.9 91.69-5.15 91.84-4.4 91.99-3.65 92.09-3.3L92.09-3.3Q92.34-2.55 92.59-1.8 92.84-1.05 93.39-0.5L93.39-0.5Q93.49-0.4 93.59-0.23 93.69-0.05 93.64-0.05ZM80.14 0.05L80.14 0.05Q78.59-1 77.76-2.25 76.94-3.5 76.64-4.85 76.34-6.2 76.41-7.6 76.49-9 76.79-10.35L76.79-10.35Q77.19-12.15 77.81-13.93 78.44-15.7 79.01-17.38 79.59-19.05 79.91-20.65 80.24-22.25 79.99-23.7L79.99-23.7Q79.99-23.9 80.04-23.9L80.04-23.9Q80.14-23.9 80.29-23.65L80.29-23.65Q81.19-22.05 81.14-20.35 81.09-18.65 80.59-16.88 80.09-15.1 79.36-13.28 78.64-11.45 78.24-9.6L78.24-9.6Q77.99-8.45 77.91-7.18 77.84-5.9 78.09-4.65 78.34-3.4 78.91-2.2 79.49-1 80.49-0.05L80.49-0.05Q80.69 0.05 80.59 0.15L80.59 0.15Q80.49 0.25 80.36 0.18 80.24 0.1 80.14 0.05ZM82.04 0.25L82.04 0.25Q81.89 0.35 81.64 0.1L81.64 0.1Q81.09-0.3 80.56-0.75 80.04-1.2 79.54-2.2L79.54-2.2Q79.34-2.55 79.24-3.1 79.14-3.65 79.14-4.17 79.14-4.7 79.21-5.05 79.29-5.4 79.44-5.4L79.44-5.4Q79.64-5.35 79.76-4.85 79.89-4.35 79.99-4.2L79.99-4.2Q80.19-3.65 80.34-3.18 80.49-2.7 80.69-2.25L80.69-2.25Q80.99-1.55 81.29-1.05 81.59-0.55 81.99-0.05L81.99-0.05Q82.04 0 82.09 0.1 82.14 0.2 82.04 0.25ZM118.09-4.5L118.34-4.25Q119.89-2.65 121.36-1.07 122.84 0.5 124.39 1.9 125.94 3.3 127.69 4.48 129.44 5.65 131.59 6.4L131.59 6.4Q131.74 6.5 131.74 6.63 131.74 6.75 131.44 6.75L131.44 6.75Q129.14 6.75 126.91 5.53 124.69 4.3 122.61 2.33 120.54 0.35 118.61-2.15 116.69-4.65 114.91-7.15 113.14-9.65 111.54-11.93 109.94-14.2 108.54-15.75L108.54-15.75Q108.49-15.85 108.41-15.95 108.34-16.05 108.34-16.15L108.34-16.15Q108.94-15.9 109.81-15.13 110.69-14.35 111.56-13.4 112.44-12.45 113.21-11.5 113.99-10.55 114.44-10L114.44-10Q116.09-12.55 116.94-15.58 117.79-18.6 117.79-21.6L117.79-21.6Q117.79-22.85 117.59-24.4 117.39-25.95 116.81-27.25 116.24-28.55 115.19-29.45 114.14-30.35 112.44-30.35L112.44-30.35Q110.54-30.35 109.04-29.63 107.54-28.9 106.36-27.73 105.19-26.55 104.24-25.1 103.29-23.65 102.54-22.2L102.54-22.2Q102.09-21.35 102.24-22.25L102.24-22.25Q102.74-23.9 103.71-25.63 104.69-27.35 106.04-28.73 107.39-30.1 109.01-31 110.64-31.9 112.54-31.9L112.54-31.9Q114.39-31.9 115.74-30.88 117.09-29.85 117.91-28.33 118.74-26.8 119.14-25.03 119.54-23.25 119.54-21.8L119.54-21.8Q119.54-18.25 118.49-14.93 117.44-11.6 115.39-8.7L115.39-8.7 117.19-5.9Q119.99-9.4 121.39-13.3 122.79-17.2 122.79-21.65L122.79-21.65Q122.79-24.1 122.36-26.5 121.94-28.9 120.84-30.83 119.74-32.75 117.84-33.95 115.94-35.15 112.99-35.15L112.99-35.15Q110.39-35.15 108.31-34.18 106.24-33.2 104.66-31.58 103.09-29.95 101.94-27.83 100.79-25.7 100.06-23.4 99.34-21.1 99.01-18.73 98.69-16.35 98.69-14.3L98.69-14.3Q98.69-12.85 98.89-11.63 99.09-10.4 99.24-9.25L99.24-9.25Q99.34-8.55 99.16-8.78 98.99-9 98.89-9.25L98.89-9.25Q98.19-10.95 98.09-12.93 97.99-14.9 97.99-16.8L97.99-16.8Q97.99-20.3 98.84-23.8 99.69-27.3 101.54-30.13 103.39-32.95 106.29-34.73 109.19-36.5 113.34-36.5L113.34-36.5Q116.24-36.5 118.31-35.25 120.39-34 121.71-32 123.04-30 123.66-27.5 124.29-25 124.29-22.55L124.29-22.55Q124.29-17.85 122.96-13.5 121.64-9.15 118.69-5.4L118.69-5.4Q118.54-5.15 118.39-4.95 118.24-4.75 118.09-4.5L118.09-4.5ZM106.39-15L106.39-15Q105.39-15 104.74-14.55 104.09-14.1 103.69-13.4 103.29-12.7 103.14-11.88 102.99-11.05 102.99-10.3L102.99-10.3Q102.99-9.05 103.29-7.68 103.59-6.3 104.21-5.13 104.84-3.95 105.89-3.2 106.94-2.45 108.44-2.45L108.44-2.45Q109.74-2.45 111.14-2.95L111.14-2.95Q111.04-3.25 110.94-3.55 110.84-3.85 110.74-4.2L110.74-4.2Q110.19-3.8 109.44-3.58 108.69-3.35 107.99-3.35L107.99-3.35Q107.54-3.35 106.99-3.58 106.44-3.8 105.94-4.17 105.44-4.55 105.09-5.03 104.74-5.5 104.74-5.95L104.74-5.95 104.74-6.05 104.79-6.05Q105.34-5.4 106.06-4.83 106.79-4.25 107.69-4.25L107.69-4.25Q108.44-4.25 109.11-4.55 109.79-4.85 110.34-5.25L110.34-5.25Q109.89-7.35 109.19-9.3 108.49-11.25 107.74-13.3L107.74-13.3Q107.49-13.75 107.59-13.8 107.69-13.85 107.94-13.5L107.94-13.5Q109.29-11.75 110.06-9.88 110.84-8 111.69-6.05L111.69-6.05Q112.74-3.6 114.24-1.5 115.74 0.6 117.44 2.4L117.44 2.4Q119.19 4.35 120.99 5.6 122.79 6.85 125.14 8.05L125.14 8.05Q125.34 8.15 125.31 8.2 125.29 8.25 125.14 8.28 124.99 8.3 124.81 8.3 124.64 8.3 124.59 8.3L124.59 8.3Q123.14 8.3 121.41 7.28 119.69 6.25 118.04 4.88 116.39 3.5 114.96 2.05 113.54 0.6 112.69-0.25L112.69-0.25 112.59-0.35Q111.59-0.1 110.61-0.05 109.64 0 108.64 0L108.64 0Q106.54 0 104.96-0.68 103.39-1.35 102.34-2.55 101.29-3.75 100.79-5.38 100.29-7 100.29-8.9L100.29-8.9Q100.29-9.8 100.46-10.83 100.64-11.85 100.99-12.8 101.34-13.75 101.91-14.58 102.49-15.4 103.24-15.95L103.24-15.95Q103.34-16 103.39-16.05L103.39-16.05Q103.49-16.15 103.54-16.15L103.54-16.15Q103.64-16.15 103.64-16.1L103.64-16.1Q103.64-15.95 103.44-15.73 103.24-15.5 103.14-15.4L103.14-15.4Q102.14-14.25 101.64-12.7 101.14-11.15 101.14-9.65L101.14-9.65Q101.14-8.05 101.61-6.45 102.09-4.85 103.01-3.58 103.94-2.3 105.34-1.5 106.74-0.7 108.54-0.7L108.54-0.7Q109.44-0.7 110.29-0.93 111.14-1.15 111.94-1.45L111.94-1.45 111.39-2.35Q110.69-2 109.94-1.8 109.19-1.6 108.44-1.6L108.44-1.6Q106.69-1.6 105.46-2.45 104.24-3.3 103.44-4.63 102.64-5.95 102.26-7.5 101.89-9.05 101.89-10.5L101.89-10.5Q101.89-11.4 102.11-12.35 102.34-13.3 102.81-14.05 103.29-14.8 104.09-15.28 104.89-15.75 106.04-15.75L106.04-15.75Q107.09-15.75 108.24-14.75 109.39-13.75 110.36-12.38 111.34-11 111.96-9.58 112.59-8.15 112.59-7.25L112.59-7.25 112.44-7Q112.29-6.95 112.14-7.1 111.99-7.25 111.89-7.45 111.79-7.65 111.71-7.85 111.64-8.05 111.59-8.15L111.59-8.15Q111.29-8.8 110.81-9.95 110.34-11.1 109.69-12.23 109.04-13.35 108.21-14.18 107.39-15 106.39-15ZM99.59-12.25L99.59-12.25Q99.54-12.8 99.54-13.4 99.54-14 99.54-14.5L99.54-14.5Q99.54-17.55 100.21-21 100.89-24.45 102.46-27.4 104.04-30.35 106.61-32.3 109.19-34.25 112.94-34.25L112.94-34.25Q115.44-34.25 117.11-33.18 118.79-32.1 119.79-30.4 120.79-28.7 121.21-26.6 121.64-24.5 121.64-22.45L121.64-22.45Q121.64-20.05 121.26-17.93 120.89-15.8 119.94-13.7L119.94-13.7Q119.59-12.9 119.51-12.95 119.44-13 119.59-13.75L119.59-13.75Q119.99-15.55 120.24-17.35 120.49-19.15 120.49-21.05L120.49-21.05Q120.49-22.75 120.19-24.83 119.89-26.9 119.06-28.7 118.24-30.5 116.81-31.7 115.39-32.9 113.14-32.9L113.14-32.9Q110.74-32.85 108.91-32.02 107.09-31.2 105.69-29.78 104.29-28.35 103.31-26.5 102.34-24.65 101.69-22.55L101.69-22.55Q100.84-19.95 100.51-17.28 100.19-14.6 99.94-12.2L99.94-12.2Q99.84-11.4 99.76-11.53 99.69-11.65 99.59-12.25ZM114.79-3.3L114.79-3.55Q115.14-3.3 115.81-2.73 116.49-2.15 117.24-1.5 117.99-0.85 118.64-0.25 119.29 0.35 119.54 0.65L119.54 0.65Q120.34 1.55 121.61 2.6 122.89 3.65 124.34 4.58 125.79 5.5 127.24 6.23 128.69 6.95 129.84 7.2L129.84 7.2Q130.34 7.3 130.24 7.4 130.14 7.5 129.79 7.58 129.44 7.65 129.04 7.7 128.64 7.75 128.54 7.75L128.54 7.75Q126.44 7.75 124.36 6.73 122.29 5.7 120.44 4.17 118.59 2.65 117.16 0.83 115.74-1 114.99-2.6L114.99-2.6Q114.94-2.7 114.86-2.95 114.79-3.2 114.79-3.3L114.79-3.3ZM142.88-15.8L142.88-15.8Q142.28-13.95 141.46-12.25 140.63-10.55 139.73-8.85L139.73-8.85Q139.63-8.75 139.43-8.38 139.23-8 139.08-8.1L139.08-8.1Q138.98-8.1 139.01-8.4 139.03-8.7 139.03-8.85L139.03-8.85Q139.08-9.25 139.26-10 139.43-10.75 139.66-11.58 139.88-12.4 140.11-13.18 140.33-13.95 140.48-14.4L140.48-14.4Q141.33-17.1 141.58-19.2 141.83-21.3 141.28-22.75L141.28-22.75Q141.18-23 141.28-23L141.28-23Q141.38-23 141.48-22.9 141.58-22.8 141.63-22.75L141.63-22.75Q142.18-22.15 142.53-21.23 142.88-20.3 143.03-19.33 143.18-18.35 143.13-17.4 143.08-16.45 142.88-15.8ZM144.23-19.4L144.23-19.4Q144.88-18.4 144.83-16.9 144.78-15.4 144.46-13.8 144.13-12.2 143.66-10.75 143.18-9.3 142.93-8.45L142.93-8.45Q142.43-6.8 141.73-5.08 141.03-3.35 140.48-2.1L140.48-2.1Q140.28-1.65 140.18-1.7L140.18-1.7Q140.03-1.75 140.01-1.93 139.98-2.1 139.98-2.2L139.98-2.2Q139.98-4.9 140.76-7.4 141.53-9.9 142.43-12.45L142.43-12.45Q142.98-14.1 143.43-15.73 143.88-17.35 143.88-19.3L143.88-19.3Q143.88-19.65 143.98-19.65L143.98-19.65Q144.03-19.65 144.08-19.58 144.13-19.5 144.23-19.4ZM134.23-3.7L134.23-3.7Q134.33-3.55 133.88-3.25 133.43-2.95 133.28-2.9L133.28-2.9Q131.08-2.1 129.86-2.85 128.63-3.6 128.11-5.1 127.58-6.6 127.58-8.43 127.58-10.25 127.78-11.7L127.78-11.7Q127.93-12.95 128.36-14.48 128.78-16 129.38-17.48 129.98-18.95 130.76-20.23 131.53-21.5 132.43-22.2L132.43-22.2Q132.53-22.25 132.66-22.35 132.78-22.45 132.88-22.45L132.88-22.45Q133.03-22.4 132.73-21.9L132.73-21.9Q132.43-21.4 132.01-20.5 131.58-19.6 131.13-18.43 130.68-17.25 130.26-15.95 129.83-14.65 129.58-13.35L129.58-13.35Q129.33-12.05 129.23-10.85 129.13-9.65 129.13-8.7 129.13-7.75 129.18-7.1 129.23-6.45 129.28-6.25L129.28-6.25Q129.63-4.7 130.61-3.98 131.58-3.25 133.23-3.55L133.23-3.55Q133.28-3.55 133.73-3.65 134.18-3.75 134.23-3.7ZM140.68 0.15L140.68 0.15Q140.88 0.35 140.88 0.45L140.88 0.45Q140.88 0.55 140.66 0.5 140.43 0.45 140.33 0.4L140.33 0.4Q139.93 0.2 139.33-0.18 138.73-0.55 138.43-1.5L138.43-1.5Q138.28-1.9 138.23-2.48 138.18-3.05 138.18-3.55 138.18-4.05 138.28-4.38 138.38-4.7 138.53-4.65L138.53-4.65Q138.63-4.6 138.76-4.2 138.88-3.8 138.98-3.35L138.98-3.35Q139.08-2.8 139.23-2.33 139.38-1.85 139.58-1.35L139.58-1.35Q139.83-0.8 140.08-0.48 140.33-0.15 140.68 0.15ZM136.08-2.6L136.08-2.6Q135.53-1.75 134.41-0.88 133.28 0 131.38 0L131.38 0Q129.88 0 128.81-0.8 127.73-1.6 127.06-2.8 126.38-4 126.11-5.43 125.83-6.85 125.83-8.15L125.83-8.15Q125.88-9.75 126.11-11.35 126.33-12.95 126.71-14.35 127.08-15.75 127.56-16.85 128.03-17.95 128.53-18.65L128.53-18.65Q128.63-18.7 128.76-18.88 128.88-19.05 128.98-18.95L128.98-18.95Q129.03-18.9 128.96-18.73 128.88-18.55 128.83-18.45L128.83-18.45Q128.38-16.95 127.96-15.28 127.53-13.6 127.28-11.9 127.03-10.2 127.03-8.55 127.03-6.9 127.33-5.5L127.33-5.5Q127.53-4.55 128.06-3.75 128.58-2.95 129.21-2.4 129.83-1.85 130.56-1.6 131.28-1.35 131.98-1.45L131.98-1.45Q133.43-1.65 134.18-2.27 134.93-2.9 135.26-3.78 135.58-4.65 135.66-5.68 135.73-6.7 135.88-7.75L135.88-7.75Q135.63-7.05 134.91-6.38 134.18-5.7 133.36-5.33 132.53-4.95 131.76-5 130.98-5.05 130.58-5.9L130.58-5.9Q130.08-7 130.03-8.3 129.98-9.6 130.08-11.15L130.08-11.15Q130.18-12.7 130.53-14.35 130.88-16 131.48-17.53 132.08-19.05 132.91-20.4 133.73-21.75 134.78-22.8L134.78-22.8 134.98-23Q135.13-23.15 135.28-23.15L135.28-23.15Q135.28-23.15 135.08-22.65L135.08-22.65Q133.63-19.95 132.63-17.07 131.63-14.2 131.43-11.25L131.43-11.25Q131.18-8 131.76-7 132.33-6 133.18-6.43 134.03-6.85 135.01-8.28 135.98-9.7 136.58-11.35L136.58-11.35Q137.13-12.85 137.76-14.45 138.38-16.05 138.91-17.68 139.43-19.3 139.71-20.85 139.98-22.4 139.83-23.75L139.83-23.75Q139.83-24 139.93-24L139.93-24Q139.98-24 139.98-23.95L139.98-23.95Q139.98-23.85 140.03-23.85L140.03-23.85Q140.08-23.8 140.08-23.75L140.08-23.75Q140.88-22.05 140.81-20.3 140.73-18.55 140.21-16.75 139.68-14.95 138.96-13.08 138.23-11.2 137.73-9.3L137.73-9.3Q137.43-8.1 137.28-6.78 137.13-5.45 137.23-4.15 137.33-2.85 137.78-1.68 138.23-0.5 139.08 0.3L139.08 0.3Q139.18 0.4 139.18 0.45L139.18 0.45Q139.18 0.55 139.06 0.53 138.93 0.5 138.83 0.45L138.83 0.45Q137.88 0.1 137.18-0.7 136.48-1.5 136.08-2.6ZM160.68-20.4L160.68-20.4Q161.08-19.9 161.31-19.15 161.53-18.4 161.48-17.53 161.43-16.65 161.08-15.7 160.73-14.75 159.98-13.85L159.98-13.85Q158.53-12.15 156.81-11.23 155.08-10.3 153.68-10.3L153.68-10.3Q152.83-10.3 153.68-10.6L153.68-10.6Q154.13-10.75 154.76-11.08 155.38-11.4 156.08-11.88 156.78-12.35 157.51-13 158.23-13.65 158.83-14.5L158.83-14.5Q159.83-15.9 160.01-17.23 160.18-18.55 159.48-19.25L159.48-19.25Q158.88-19.85 158.08-19.93 157.28-20 155.68-19.05L155.68-19.05Q154.23-18.2 153.08-16.95 151.93-15.7 150.93-14.3L150.93-14.3Q150.38-13.6 150.21-13.6 150.03-13.6 150.33-14.5L150.33-14.5Q150.93-16.25 152.01-17.75 153.08-19.25 154.58-20.3L154.58-20.3Q155.68-21.05 156.61-21.35 157.53-21.65 158.31-21.6 159.08-21.55 159.68-21.23 160.28-20.9 160.68-20.4ZM163.38-16.9L163.38-16.9Q163.18-15.7 162.76-14.88 162.33-14.05 161.81-13.48 161.28-12.9 160.76-12.55 160.23-12.2 159.83-11.9L159.83-11.9Q159.63-11.75 159.53-11.85 159.43-11.95 159.68-12.2L159.68-12.2Q160.58-12.95 161.51-14.23 162.43-15.5 162.48-17.05L162.48-17.05Q162.48-19.7 161.18-21.1L161.18-21.1Q159.88-22.5 157.93-22.33 155.98-22.15 153.88-20.8L153.88-20.8Q152.53-19.95 151.51-18.82 150.48-17.7 149.73-16.43 148.98-15.15 148.51-13.8 148.03-12.45 147.83-11.1L147.83-11.1Q147.63-9.8 147.46-8.3 147.28-6.8 147.46-5.35 147.63-3.9 148.38-2.58 149.13-1.25 150.73-0.3L150.73-0.3Q150.98-0.15 151.26-0.1 151.53-0.05 151.53 0L151.53 0Q151.53 0.1 151.28 0.13 151.03 0.15 150.73 0.05L150.73 0.05Q149.48-0.2 148.61-0.98 147.73-1.75 147.18-2.75 146.63-3.75 146.33-4.85 146.03-5.95 145.98-6.85L145.98-6.85Q145.68-10.8 147.08-14.65L147.08-14.65Q147.38-15.45 147.86-16.45 148.33-17.45 149.03-18.48 149.73-19.5 150.68-20.48 151.63-21.45 152.83-22.2L152.83-22.2Q153.98-22.9 155.23-23.25 156.48-23.6 157.73-23.58 158.98-23.55 160.08-23.13 161.18-22.7 162.03-21.85L162.03-21.85Q162.78-21.05 163.21-19.8 163.63-18.55 163.38-16.9ZM158.83-18.7L158.83-18.7Q159.43-18 158.98-16.53 158.53-15.05 156.88-13.55L156.88-13.55Q155.98-12.7 155.13-12.18 154.28-11.65 152.98-11.25L152.98-11.25Q152.43-9.35 152.28-7.5 152.13-5.65 152.38-4.5L152.38-4.5Q152.43-4.05 152.71-3.63 152.98-3.2 153.51-2.98 154.03-2.75 154.88-2.8 155.73-2.85 156.98-3.35L156.98-3.35Q157.33-3.5 157.41-3.43 157.48-3.35 157.08-3.1L157.08-3.1Q156.18-2.4 155.18-2.13 154.18-1.85 153.31-1.95 152.43-2.05 151.81-2.55 151.18-3.05 150.98-3.9L150.98-3.9Q150.58-5.65 150.63-7.55 150.68-9.45 151.21-11.3 151.73-13.15 152.71-14.78 153.68-16.4 155.13-17.55L155.13-17.55Q157.83-19.7 158.83-18.7ZM158.33-2.75L158.33-2.75Q157.98-2.25 157.46-1.78 156.93-1.3 156.26-0.93 155.58-0.55 154.86-0.3 154.13-0.05 153.38-0.05L153.38-0.05Q152.08-0.05 150.96-0.63 149.83-1.2 149.23-2.95L149.23-2.95Q149.13-3.15 149.13-3.33 149.13-3.5 149.23-3.5L149.23-3.5Q149.43-3.6 149.63-3.38 149.83-3.15 150.03-2.9L150.03-2.9Q150.58-2.25 151.46-1.75 152.33-1.25 153.13-1.25L153.13-1.25Q154.63-1.25 155.73-1.7 156.83-2.15 157.83-2.9L157.83-2.9Q158.08-3.05 158.41-3.2 158.73-3.35 158.33-2.75ZM157.63-17.35L157.63-17.35Q157.43-17.75 156.18-16.7L156.18-16.7Q155.03-15.8 154.36-14.63 153.68-13.45 153.18-12.05L153.18-12.05Q154.13-12.5 154.93-13.08 155.73-13.65 156.43-14.2L156.43-14.2Q157.18-14.85 157.53-15.9 157.88-16.95 157.63-17.35ZM168.73-18.45L168.73-18.45Q168.78-18.9 169.03-19.53 169.28-20.15 169.7-20.73 170.13-21.3 170.73-21.78 171.33-22.25 172.08-22.4L172.08-22.4Q173.68-22.7 174.73-22.2 175.78-21.7 176.33-21.05L176.33-21.05Q176.53-20.75 176.48-20.7L176.48-20.7Q176.38-20.6 176.13-20.75L176.13-20.75Q175.83-20.95 175.15-21.1 174.48-21.25 173.7-21.18 172.93-21.1 172.2-20.7 171.48-20.3 171.03-19.4L171.03-19.4Q170.63-18.55 170.48-17.65 170.33-16.75 170.3-15.98 170.28-15.2 170.33-14.65 170.38-14.1 170.38-13.9L170.38-13.9Q170.48-13.35 170.55-12.53 170.63-11.7 170.63-10.85 170.63-10 170.58-9.18 170.53-8.35 170.38-7.75L170.38-7.75Q170.33-7.6 170.25-7.25 170.18-6.9 170.08-6.9L170.08-6.9Q169.83-6.9 169.83-7.25 169.83-7.6 169.83-7.75L169.83-7.75Q169.73-9 169.48-10.28 169.23-11.55 169-12.9 168.78-14.25 168.68-15.63 168.58-17 168.73-18.45ZM166.98-8.55L166.98-8.55Q167.03-9.55 166.8-11.38 166.58-13.2 166.63-15.6L166.63-15.6Q166.68-16.85 166.88-18.18 167.08-19.5 167.83-20.8L167.83-20.8Q168.63-22.2 169.85-22.88 171.08-23.55 171.98-23.5L171.98-23.5Q172.13-23.5 172.28-23.5 172.43-23.5 172.43-23.45L172.43-23.45Q172.43-23.35 172.38-23.38 172.33-23.4 172.03-23.3L172.03-23.3Q171.13-23.05 170.43-22.48 169.73-21.9 169.23-21.15 168.73-20.4 168.43-19.6 168.13-18.8 168.08-18.15L168.08-18.15Q167.78-15.4 168.13-13.35L168.13-13.35Q168.38-11.7 168.53-9.93 168.68-8.15 168.4-6.68 168.13-5.2 167.35-4.23 166.58-3.25 164.98-3.15L164.98-3.15Q164.83-3.15 164.6-3.18 164.38-3.2 164.38-3.3L164.38-3.3Q164.38-3.4 164.83-3.65L164.83-3.65Q166.13-4.25 166.53-5.4 166.93-6.55 166.98-8.55ZM161.68-2.65L161.68-2.65Q162.38-1.55 163.9-1.03 165.43-0.5 167.53-1.1L167.53-1.1Q168.58-1.4 169.38-2.15 170.18-2.9 170.7-3.83 171.23-4.75 171.5-5.75 171.78-6.75 171.83-7.6L171.83-7.6Q171.88-9 171.75-10.35 171.63-11.7 171.45-12.98 171.28-14.25 171.15-15.45 171.03-16.65 171.13-17.8L171.13-17.8Q171.23-19.05 171.83-19.7 172.43-20.35 173.3-20.53 174.18-20.7 175.13-20.4 176.08-20.1 176.88-19.45L176.88-19.45Q177.08-19.35 177.03-19.2L177.03-19.2Q177.03-19.1 176.93-19.15 176.83-19.2 176.73-19.25L176.73-19.25Q174.88-19.85 173.85-19.6 172.83-19.35 172.73-17.8L172.73-17.8Q172.63-16 173-13.58 173.38-11.15 173.28-8.2L173.28-8.2Q173.33-7.2 173.05-5.9 172.78-4.6 172.15-3.38 171.53-2.15 170.5-1.2 169.48-0.25 168.08 0L168.08 0Q165.43 0.4 163.85-0.3 162.28-1 161.58-2.45L161.58-2.45Q161.48-2.75 161.48-2.8L161.48-2.8 161.53-2.8Q161.53-2.8 161.68-2.65ZM163.88-2.65L163.88-2.65Q164.83-2.4 166.18-2.45L166.18-2.45Q166.63-2.5 167.28-2.7 167.93-2.9 167.98-2.8L167.98-2.8Q168.13-2.6 167.68-2.3 167.23-2 166.53-1.78 165.83-1.55 165.08-1.48 164.33-1.4 163.83-1.6L163.83-1.6Q162.88-2 162.45-2.48 162.03-2.95 161.68-3.65L161.68-3.65 161.58-3.85Q161.48-4.05 161.53-4.1L161.53-4.1Q161.58-4.15 161.68-4.1L161.68-4.1Q161.73-4.05 161.73-4L161.73-4Q162.33-3.45 162.75-3.18 163.18-2.9 163.88-2.65ZM191.08-22.2L191.08-22.2Q191.13-22.15 191.13-21.98 191.13-21.8 191.08-21.7L191.08-21.7Q190.63-20.25 189.53-19.65 188.43-19.05 187.58-19.05L187.58-19.05Q186.53-19.05 185.43-19.23 184.33-19.4 183.33-20.15L183.33-20.15Q183.23-20.25 183.08-20.35 182.93-20.45 182.93-20.55L182.93-20.55Q182.93-20.7 183.08-20.78 183.23-20.85 183.33-20.9L183.33-20.9Q183.78-21 184.5-21.08 185.23-21.15 185.93-21.05L185.93-21.05Q186.43-20.95 187.13-20.95 187.83-20.95 188.55-21.05 189.28-21.15 189.88-21.38 190.48-21.6 190.78-22.05L190.78-22.05Q190.93-22.25 191.08-22.2ZM191.43-23.75L191.43-23.75 191.28-23.5Q190.43-22.4 189.48-22.08 188.53-21.75 187.48-21.8 186.43-21.85 185.35-22.08 184.28-22.3 183.23-22.35L183.23-22.35Q181.83-22.4 180.43-21.5 179.03-20.6 178.03-18.35L178.03-18.35Q177.88-18.05 177.83-18.23 177.78-18.4 177.83-18.55L177.83-18.55Q178.23-20.05 178.78-21.05 179.33-22.05 179.95-22.68 180.58-23.3 181.28-23.6 181.98-23.9 182.73-24L182.73-24Q183.58-26.85 184.05-29.58 184.53-32.3 184.13-34.75L184.13-34.75Q184.13-34.95 184.13-34.95L184.13-34.95Q184.23-35 184.33-34.9 184.43-34.8 184.43-34.75L184.43-34.75Q185.53-32.35 185.33-29.63 185.13-26.9 184.33-23.9L184.33-23.9Q184.58-23.85 184.73-23.85 184.88-23.85 185.08-23.85L185.08-23.85Q185.33-25.15 185.55-26.63 185.78-28.1 185.9-29.45 186.03-30.8 185.98-31.9 185.93-33 185.63-33.55L185.63-33.55Q185.48-34 185.63-34L185.63-34Q185.73-34 185.78-33.9 185.83-33.8 185.93-33.7L185.93-33.7Q186.63-33 187.03-31.8 187.43-30.6 187.58-29.25 187.73-27.9 187.68-26.58 187.63-25.25 187.38-24.25L187.38-24.25 187.18-23.45Q187.33-23.35 187.48-23.35 187.63-23.35 187.78-23.3L187.78-23.3Q188.08-24.8 188.3-26.3 188.53-27.8 188.48-29.45L188.48-29.45Q188.48-29.8 188.53-29.8L188.53-29.8Q188.63-29.8 188.68-29.65 188.73-29.5 188.78-29.4L188.78-29.4Q189.38-28.3 189.35-26.65 189.33-25 189.08-23.15L189.08-23.15Q190.18-23.15 191.18-23.75L191.18-23.75Q191.43-23.9 191.43-23.75ZM181.08-20.35L181.08-20.35Q181.08-20.1 180.8-19.85 180.53-19.6 180.38-19.5L180.38-19.5Q180.13-19.3 179.8-19.03 179.48-18.75 179.23-18.45L179.23-18.45Q178.98-18.05 178.75-17.75 178.53-17.45 178.38-16.9L178.38-16.9Q178.33-16.8 178.25-16.73 178.18-16.65 178.13-16.7L178.13-16.7Q177.98-16.85 178.13-17.35L178.13-17.35Q178.33-18.1 178.53-18.57 178.73-19.05 179.28-19.6L179.28-19.6Q179.48-19.8 179.78-20 180.08-20.2 180.38-20.35 180.68-20.5 180.88-20.5 181.08-20.5 181.08-20.35ZM184.98-0.25L184.98-0.25Q185.23-0.35 185.18-0.2 185.13-0.05 185.03 0L185.03 0Q184.13 0.3 183.13-0.1 182.13-0.5 181.28-1.35 180.43-2.2 179.83-3.33 179.23-4.45 179.08-5.55L179.08-5.55Q178.83-7.9 179.03-10.1 179.23-12.3 179.78-14.45L179.78-14.45 180.63-17.6Q180.33-17.6 180.03-17.75L180.03-17.75Q179.68-17.85 179.68-18L179.68-18Q179.68-18.1 180.03-18.3L180.03-18.3Q181.43-19 182.85-18.9 184.28-18.8 185.73-18.55L185.73-18.55Q186.63-18.4 187.55-18.32 188.48-18.25 189.58-18.7L189.58-18.7Q189.68-18.8 189.78-18.75L189.78-18.75Q189.88-18.65 189.73-18.4L189.73-18.4Q189.43-17.75 188.88-17.45 188.33-17.15 187.73-17L187.73-17Q187.33-15.7 187.03-14.68 186.73-13.65 186.53-12.95L186.53-12.95Q185.98-10.55 185.25-8.08 184.53-5.6 184.28-3.9L184.28-3.9Q184.18-3.35 184.08-3.3L184.08-3.3Q183.98-3.25 183.88-3.5 183.78-3.75 183.73-3.9L183.73-3.9Q183.53-5.35 183.65-6.93 183.78-8.5 184.13-10.15 184.48-11.8 184.93-13.48 185.38-15.15 185.88-16.85L185.88-16.85Q185.63-16.85 185.38-16.85 185.13-16.85 184.88-16.9L184.88-16.9Q184.48-15.85 184.05-14.83 183.63-13.8 183.23-12.9L183.23-12.9Q183.18-12.8 183-12.43 182.83-12.05 182.73-12.05L182.73-12.05Q182.53-12.1 182.58-12.53 182.63-12.95 182.63-13.1L182.63-13.1Q182.73-13.85 182.95-14.85 183.18-15.85 183.38-17L183.38-17Q183.13-17.05 182.83-17.07 182.53-17.1 182.23-17.2L182.23-17.2Q181.93-16.2 181.65-15.25 181.38-14.3 181.13-13.35L181.13-13.35Q180.73-11.6 180.53-9.63 180.33-7.65 180.53-5.55L180.53-5.55Q180.63-4.6 181.05-3.6 181.48-2.6 182.08-1.8 182.68-1 183.45-0.55 184.23-0.1 184.98-0.25ZM185.43-1.35L185.43-1.35Q185.68-1.55 185.73-1.38 185.78-1.2 185.53-1.05L185.53-1.05Q185.33-0.9 185-0.83 184.68-0.75 184.28-0.8 183.88-0.85 183.43-1.1 182.98-1.35 182.58-1.9L182.58-1.9Q182.23-2.35 182-3.2 181.78-4.05 181.68-4.88 181.58-5.7 181.63-6.3 181.68-6.9 181.88-6.9L181.88-6.9Q182.13-6.9 182.25-6.2 182.38-5.5 182.48-5.05L182.48-5.05Q182.68-4.25 183.03-3.4 183.38-2.55 183.78-2.05L183.78-2.05Q184.28-1.4 184.68-1.28 185.08-1.15 185.43-1.35ZM212.22-30.5L212.22-30.5Q212.17-29.9 212-29.08 211.82-28.25 211.57-27.53 211.32-26.8 211.07-26.3 210.82-25.8 210.67-25.9L210.67-25.9Q210.62-25.9 210.62-26.15 210.62-26.4 210.62-26.73 210.62-27.05 210.67-27.35 210.72-27.65 210.72-27.8L210.72-27.8Q210.87-28.6 210.92-29.3 210.97-30 211.07-30.75L211.07-30.75Q211.17-31.7 211.2-32.55 211.22-33.4 211.07-34.3L211.07-34.3Q211.07-34.4 211.02-34.55 210.97-34.7 211.07-34.7L211.07-34.7Q211.22-34.7 211.42-34.48 211.62-34.25 211.67-34.15L211.67-34.15Q211.97-33.55 212.15-32.75 212.32-31.95 212.22-30.5ZM212.87-34L212.87-34Q213.72-32 213.9-30.03 214.07-28.05 213.8-26.08 213.52-24.1 212.85-22.15 212.17-20.2 211.32-18.35L211.32-18.35Q210.17-15.85 208.9-13.45 207.62-11.05 206.42-8.75 205.22-6.45 204.2-4.28 203.17-2.1 202.57 0L202.57 0Q202.47 0.25 202.35 0.2 202.22 0.15 202.22 0L202.22 0Q202.12-2.4 202.92-4.83 203.72-7.25 204.95-9.7 206.17-12.15 207.6-14.63 209.02-17.1 210.17-19.65L210.17-19.65Q210.92-21.25 211.52-23 212.12-24.75 212.5-26.6 212.87-28.45 212.95-30.28 213.02-32.1 212.67-33.85L212.67-33.85Q212.57-34.3 212.67-34.25L212.67-34.25Q212.72-34.25 212.87-34ZM196.62-14.45L196.62-14.45Q196.62-14.3 196.6-13.83 196.57-13.35 196.42-13.35L196.42-13.35Q196.32-13.3 196.17-13.73 196.02-14.15 195.92-14.4L195.92-14.4Q195.72-15.05 195.47-15.98 195.22-16.9 195-17.88 194.77-18.85 194.6-19.8 194.42-20.75 194.37-21.45L194.37-21.45Q194.32-21.8 194.17-22.83 194.02-23.85 193.77-25.25 193.52-26.65 193.2-28.25 192.87-29.85 192.5-31.33 192.12-32.8 191.72-33.98 191.32-35.15 190.92-35.7L190.92-35.7Q190.67-36.05 190.77-36.15L190.77-36.15Q190.87-36.25 191.02-36.13 191.17-36 191.27-35.9L191.27-35.9Q192.07-35.3 192.8-34.2 193.52-33.1 194.12-31.85 194.72-30.6 195.12-29.28 195.52-27.95 195.67-26.9L195.67-26.9Q196.12-23.95 196.32-20.65 196.52-17.35 196.62-14.45ZM199.77-7.4L199.77-7.4Q198.77-10.75 198.17-14.3 197.57-17.85 197.12-21.45L197.12-21.45Q196.77-24.1 196.32-26.75 195.87-29.4 194.92-32.25L194.92-32.25Q194.82-32.5 194.82-32.52 194.82-32.55 194.92-32.6L194.92-32.6Q195.02-32.6 195.27-32.35L195.27-32.35Q196.32-31.3 197.05-29.1 197.77-26.9 198.3-24.43 198.82-21.95 199.17-19.63 199.52-17.3 199.77-15.9L199.77-15.9Q200.02-14.75 200.2-13.55 200.37-12.35 200.47-11.15L200.47-11.15Q200.82-12.5 201.42-13.93 202.02-15.35 202.65-16.7 203.27-18.05 203.9-19.23 204.52-20.4 204.92-21.25L204.92-21.25Q205.97-23.5 207.32-25.78 208.67-28.05 209.82-29.6L209.82-29.6Q210.27-30.2 210.32-30.2L210.32-30.2Q210.42-30.1 210.35-29.88 210.27-29.65 210.17-29.4L210.17-29.4Q209.17-25.8 207.45-22.4 205.72-19 203.97-15.55L203.97-15.55Q202.97-13.65 201.97-11.7 200.97-9.75 200.47-7.35L200.47-7.35Q200.37-6.8 200.2-6.68 200.02-6.55 199.77-7.4ZM201.32 0L201.32 0Q201.47 0.1 201.4 0.13 201.32 0.15 201.17 0.05L201.17 0.05Q199.22-0.85 197.82-2.43 196.42-4 195.45-5.95 194.47-7.9 193.87-10.1 193.27-12.3 192.87-14.45L192.87-14.45Q192.32-17.45 192.02-20.45 191.72-23.45 191.35-26.33 190.97-29.2 190.47-31.83 189.97-34.45 189.07-36.65L189.07-36.65Q189.02-36.75 189-36.83 188.97-36.9 189.07-37L189.07-37Q189.12-37.05 189.22-36.9 189.32-36.75 189.37-36.65L189.37-36.65Q190.92-34.55 191.7-31.88 192.47-29.2 192.87-26.23 193.27-23.25 193.55-20.13 193.82-17 194.37-14.05L194.37-14.05Q194.72-12.15 195.32-10.18 195.92-8.2 196.77-6.33 197.62-4.45 198.75-2.83 199.87-1.2 201.32 0ZM201.07-1.25L201.07-1.25Q200.77-1.55 200.3-2.05 199.82-2.55 199.42-3.1L199.42-3.1Q199.12-3.6 198.77-4.42 198.42-5.25 198.15-6.05 197.87-6.85 197.75-7.48 197.62-8.1 197.77-8.15L197.77-8.15Q197.82-8.15 198-7.93 198.17-7.7 198.32-7.4 198.47-7.1 198.62-6.83 198.77-6.55 198.87-6.45L198.87-6.45Q199.27-5.75 199.57-5.18 199.87-4.6 200.12-3.95L200.12-3.95Q200.42-3.3 200.75-2.83 201.07-2.35 201.12-2.4L201.12-2.4Q201.17-2.4 201.15-2.68 201.12-2.95 201.1-3.3 201.07-3.65 201.05-3.98 201.02-4.3 201.02-4.45L201.02-4.45Q200.92-6.35 201.35-7.85 201.77-9.35 202.32-10.6L202.32-10.6Q203.47-13.15 205.02-15.7 206.57-18.25 208.17-20.5L208.17-20.5Q208.27-20.6 208.57-20.95 208.87-21.3 208.97-21.25L208.97-21.25Q209.12-21.2 209-20.78 208.87-20.35 208.82-20.2L208.82-20.2Q208.62-19.6 208.3-18.8 207.97-18 207.62-17.13 207.27-16.25 206.9-15.45 206.52-14.65 206.22-14.1L206.22-14.1Q206.07-13.8 205.67-12.95 205.27-12.1 204.77-10.88 204.27-9.65 203.72-8.25 203.17-6.85 202.7-5.53 202.22-4.2 201.92-3.1 201.62-2 201.62-1.35L201.62-1.35Q201.62-1 201.47-1L201.47-1Q201.32-1 201.07-1.25ZM226.67-9.65L226.67-9.65Q228.27-8.2 229.67-6.58 231.07-4.95 232.37-3.2L232.37-3.2Q232.42-3.1 232.65-2.83 232.87-2.55 232.77-2.45L232.77-2.45Q232.72-2.4 232.4-2.53 232.07-2.65 231.97-2.75L231.97-2.75Q231.57-3 231.05-3.4 230.52-3.8 229.95-4.25 229.37-4.7 228.82-5.18 228.27-5.65 227.92-6.05L227.92-6.05Q227.67-6.25 226.72-7.08 225.77-7.9 224.57-8.85 223.37-9.8 222.12-10.6 220.87-11.4 220.07-11.6L220.07-11.6Q219.92-11.65 219.65-11.75 219.37-11.85 219.42-12.1L219.42-12.1Q219.82-14 220.42-15.8 221.02-17.6 221.57-19.5L221.57-19.5Q222.27-21.85 222.9-24.3 223.52-26.75 223.62-29.6L223.62-29.6Q223.62-29.85 223.67-29.85L223.67-29.85Q223.82-29.85 223.92-29.5L223.92-29.5Q224.52-28.15 224.42-26 224.32-23.85 223.9-21.53 223.47-19.2 222.85-17.07 222.22-14.95 221.77-13.7L221.77-13.7 221.62-13.3Q223.47-14.55 225.47-15.8 227.47-17.05 229.2-18.32 230.92-19.6 232.2-20.98 233.47-22.35 233.92-23.85L233.92-23.85Q234.22-24.85 233.85-25.85 233.47-26.85 232.55-27.73 231.62-28.6 230.22-29.25 228.82-29.9 227.12-30.15L227.12-30.15Q224.87-30.45 222.57-30.3L222.57-30.3Q222.77-28.8 222.65-27.28 222.52-25.75 222.27-24.65L222.27-24.65Q221.62-21.95 220.62-19.07 219.62-16.2 218.57-13.7L218.57-13.7Q218.47-13.55 218.27-13.2 218.07-12.85 217.92-12.9L217.92-12.9Q217.82-12.95 217.87-13.35 217.92-13.75 217.92-13.9L217.92-13.9Q217.97-14.5 218.15-15.38 218.32-16.25 218.5-17.2 218.67-18.15 218.9-19.03 219.12-19.9 219.32-20.55L219.32-20.55Q219.42-20.85 219.65-21.83 219.87-22.8 220.12-24.15 220.37-25.5 220.62-27.05 220.87-28.6 221.02-30.05L221.02-30.05 220.32-29.95Q220.17-28.05 219.72-26.1 219.27-24.15 218.7-22.18 218.12-20.2 217.5-18.18 216.87-16.15 216.42-14.2L216.42-14.2Q216.02-12.45 215.8-10.55 215.57-8.65 215.65-6.8 215.72-4.95 216.1-3.23 216.47-1.5 217.32-0.1L217.32-0.1Q217.42 0.15 217.32 0.15L217.32 0.15Q217.22 0.15 217.07 0L217.07 0Q215.82-1.45 215.17-3.25 214.52-5.05 214.35-7.03 214.17-9 214.4-11.1 214.62-13.2 215.07-15.2L215.07-15.2Q215.92-18.95 217.12-22.6 218.32-26.25 219.12-29.65L219.12-29.65Q217.87-29.35 216.67-28.93 215.47-28.5 214.42-28L214.42-28Q214.17-27.9 214.12-27.95L214.12-27.95Q214.07-28 214.17-28.13 214.27-28.25 214.37-28.3L214.37-28.3Q216.87-30.35 220.47-31.2 224.07-32.05 227.82-31.65L227.82-31.65Q229.77-31.4 231.4-30.55 233.02-29.7 234.07-28.48 235.12-27.25 235.45-25.75 235.77-24.25 235.12-22.75L235.12-22.75Q234.37-21 232.75-19.5 231.12-18 229.1-16.7 227.07-15.4 224.82-14.3 222.57-13.2 220.62-12.25L220.62-12.25Q221.42-12.25 222.27-12 223.12-11.75 223.95-11.38 224.77-11 225.5-10.55 226.22-10.1 226.67-9.65ZM240.52-22.15L240.52-22.15Q239.77-19.55 238.25-17.73 236.72-15.9 234.87-14.7 233.02-13.5 231.12-12.88 229.22-12.25 227.82-12.05L227.82-12.05Q227.42-11.95 227.1-11.98 226.77-12 226.82-12.1L226.82-12.1Q226.72-12.2 227.05-12.3 227.37-12.4 227.72-12.55L227.72-12.55Q230.42-13.55 232.92-15.15 235.42-16.75 237.32-19.4L237.32-19.4Q238.22-20.65 238.67-22.3 239.12-23.95 239-25.65 238.87-27.35 238.15-28.95 237.42-30.55 236.02-31.7L236.02-31.7Q234.37-33.1 232.42-33.9 230.47-34.7 228.42-35 226.37-35.3 224.27-35.13 222.17-34.95 220.22-34.45L220.22-34.45Q219.87-34.35 219.82-34.33 219.77-34.3 219.72-34.4L219.72-34.4Q219.72-34.45 220.12-34.75L220.12-34.75Q220.92-35.25 222.25-35.68 223.57-36.1 225.25-36.25 226.92-36.4 228.87-36.23 230.82-36.05 232.87-35.3L232.87-35.3Q234.97-34.6 236.82-33.13 238.67-31.65 239.77-29.5L239.77-29.5Q240.82-27.4 240.85-25.43 240.87-23.45 240.52-22.15ZM215.12-30.3L215.12-30.3Q216.12-31.75 217.77-32.68 219.42-33.6 221.37-34.05 223.32-34.5 225.45-34.45 227.57-34.4 229.57-33.95 231.57-33.5 233.3-32.6 235.02-31.7 236.17-30.4L236.17-30.4Q236.97-29.45 237.4-28.38 237.82-27.3 237.85-26.18 237.87-25.05 237.6-24 237.32-22.95 236.82-22.05L236.82-22.05Q236.72-21.85 236.32-21.38 235.92-20.9 235.82-21L235.82-21Q235.72-21.05 235.97-21.55 236.22-22.05 236.32-22.3L236.32-22.3Q236.72-23.6 236.65-24.88 236.57-26.15 236.15-27.25 235.72-28.35 235.02-29.23 234.32-30.1 233.52-30.65L233.52-30.65Q231.62-31.9 229.22-32.43 226.82-32.95 224.35-32.83 221.87-32.7 219.52-31.98 217.17-31.25 215.47-30.05L215.47-30.05Q215.02-29.65 214.87-29.8L214.87-29.8Q214.77-29.85 214.9-30.03 215.02-30.2 215.12-30.3ZM241.77 1.2L241.77 1.2Q242.07 1.15 242.07 1.25L242.07 1.25Q242.07 1.35 241.82 1.45L241.82 1.45Q240.02 2.1 238.32 2.15 236.62 2.2 235.07 1.83 233.52 1.45 232.17 0.78 230.82 0.1 229.72-0.7L229.72-0.7Q228.42-1.65 227.25-2.83 226.07-4 224.97-5.18 223.87-6.35 222.77-7.45 221.67-8.55 220.52-9.4L220.52-9.4Q219.67-6.6 218.97-4.45L218.97-4.45Q218.87-4.2 218.77-4 218.67-3.8 218.57-3.85L218.57-3.85Q218.47-3.9 218.47-4.13 218.47-4.35 218.47-4.6L218.47-4.6Q218.57-6 218.67-7.45 218.77-8.9 219.12-10.35L219.12-10.35Q218.77-10.55 218.45-10.7 218.12-10.85 217.72-11.05L217.72-11.05Q217.57-11.2 217.57-11.25L217.57-11.25Q217.57-11.3 217.7-11.3 217.82-11.3 217.92-11.3L217.92-11.3Q219.92-11.15 221.57-10.08 223.22-9 224.77-7.55 226.32-6.1 227.82-4.48 229.32-2.85 231.02-1.6L231.02-1.6Q231.97-0.9 233.2-0.33 234.42 0.25 235.82 0.65 237.22 1.05 238.75 1.23 240.27 1.4 241.77 1.2ZM234.02-6.1L234.02-6.1Q235.42-4.85 236.7-3.3 237.97-1.75 239.17-0.8L239.17-0.8Q239.52-0.45 239.47-0.3L239.47-0.3Q239.37-0.2 239.22-0.25 239.07-0.3 238.87-0.35L238.87-0.35Q237.52-0.8 236.35-1.6 235.17-2.4 234.07-3.4 232.97-4.4 231.95-5.5 230.92-6.6 229.87-7.65L229.87-7.65Q229.17-8.35 228.35-9.2 227.52-10.05 226.62-10.78 225.72-11.5 224.75-11.98 223.77-12.45 222.72-12.45L222.72-12.45 224.67-13.3Q225.42-13.65 226.52-14.15 227.62-14.65 228.62-15.1 229.62-15.55 230.37-15.83 231.12-16.1 231.17-16.05L231.17-16.05Q231.22-15.95 231-15.7 230.77-15.45 230.4-15.15 230.02-14.85 229.67-14.6 229.32-14.35 229.17-14.3L229.17-14.3Q228.22-13.75 227.4-13.28 226.57-12.8 225.72-12.4L225.72-12.4Q226.87-11.95 228.07-11.13 229.27-10.3 230.37-9.35 231.47-8.4 232.42-7.53 233.37-6.65 234.02-6.1ZM217.82-3L217.82-3Q217.97-2.15 218.22-1.35 218.47-0.55 218.82 0L218.82 0Q218.87 0 218.9 0.08 218.92 0.15 218.82 0.15L218.82 0.15Q218.72 0.15 218.6 0.08 218.47 0 218.37 0L218.37 0Q217.72-0.4 217.35-0.98 216.97-1.55 216.72-3L216.72-3Q216.62-3.55 216.62-4.4 216.62-5.25 216.67-6.03 216.72-6.8 216.82-7.35 216.92-7.9 217.12-7.9L217.12-7.9Q217.17-7.9 217.25-7.65 217.32-7.4 217.37-7.08 217.42-6.75 217.45-6.45 217.47-6.15 217.47-6.05L217.47-6.05Q217.57-5.2 217.62-4.45 217.67-3.7 217.82-3ZM239.72 0.15L239.72 0.15Q240.52 0.2 240.95 0.18 241.37 0.15 242.07 0.05L242.07 0.05Q242.12 0.05 242.32 0.03 242.52 0 242.57 0.05L242.57 0.05Q242.62 0.15 242.45 0.3 242.27 0.45 242.17 0.5L242.17 0.5Q241.37 0.75 240.7 0.85 240.02 0.95 238.72 0.8L238.72 0.8Q238.27 0.75 237.72 0.6 237.17 0.45 236.72 0.28 236.27 0.1 236.02-0.08 235.77-0.25 235.92-0.35L235.92-0.35Q236.02-0.4 236.55-0.28 237.07-0.15 237.27-0.1L237.27-0.1Q237.97 0.05 238.57 0.1 239.17 0.15 239.72 0.15Z" opacity="1" transform="matrix(1,0,0,1,0,0)" fill="#ffffff" class="wordmark-text-0" data-fill-palette-color="primary" id="text-0"></path></svg></g></svg></g></svg></g></svg></g><g transform="matrix(1,0,0,1,61.979016162810176,0)"><svg viewBox="0 0 120.47332767437963 126.35007536581278" height="126.35007536581278" width="120.47332767437963"><g><svg xmlns="http://www.w3.org/2000/svg" xmlns:xlink="http://www.w3.org/1999/xlink" version="1.1" x="0" y="0" viewBox="51 41 410 430" style="enable-background:new 0 0 512 512;" xml:space="preserve" height="126.35007536581278" width="120.47332767437963" class="icon-icon-0" data-fill-palette-color="accent" id="icon-0"><g fill="#46a3ff" data-fill-palette-color="accent"><g fill="#46a3ff" data-fill-palette-color="accent"><g fill="#46a3ff" data-fill-palette-color="accent"><path d="M191 471C185.477 471 181 466.522 181 461V331H151C145.477 331 141 326.522 141 321V231C141 225.477 145.477 221 151 221S161 225.477 161 231V311H191C196.523 311 201 315.478 201 321V461C201 466.522 196.523 471 191 471" fill="#46a3ff" data-fill-palette-color="accent"></path></g><g fill="#46a3ff" data-fill-palette-color="accent"><path d="M231 471C225.477 471 221 466.522 221 461V371H161C155.477 371 151 366.522 151 361S155.477 351 161 351H231C236.523 351 241 355.478 241 361V461C241 466.522 236.523 471 231 471" fill="#46a3ff" data-fill-palette-color="accent"></path></g><g fill="#46a3ff" data-fill-palette-color="accent"><path d="M281 211H61C55.477 211 51 206.523 51 201V151C51 145.477 55.477 141 61 141H281C286.522 141 291 145.477 291 151V161C291 166.523 286.522 171 281 171S271 166.523 271 161H71V191H281C286.522 191 291 195.477 291 201S286.522 211 281 211" fill="#46a3ff" data-fill-palette-color="accent"></path></g><g fill="#46a3ff" data-fill-palette-color="accent"><path d="M311 221H281C275.478 221 271 216.523 271 211V141C271 135.477 275.478 131 281 131H311C316.522 131 321 135.477 321 141V211C321 216.523 316.522 221 311 221M291 201H301V151H291z" fill="#46a3ff" data-fill-palette-color="accent"></path></g><g fill="#46a3ff" data-fill-palette-color="accent"><g fill="#46a3ff" data-fill-palette-color="accent"><path d="M291 471H111C105.477 471 101 466.522 101 461V211C101 205.477 105.477 201 111 201S121 205.477 121 211V451H281V391C281 385.478 285.478 381 291 381S301 385.478 301 391V461C301 466.522 296.522 471 291 471M351 361H301C295.478 361 291 356.522 291 351S295.478 341 301 341H341V261C341 255.477 345.478 251 351 251H371V241.541L307.838 220.487A10 10 0 0 1 301 211V141A10 10 0 0 1 307.838 131.513L352.534 116.614C338.054 93.597 316.297 76.342 290.253 67.455 285.026 65.671 282.234 59.989 284.019 54.762 285.802 49.535 291.487 46.744 296.712 48.527 331.446 60.379 359.65 84.974 376.126 117.782A10 10 0 0 1 370.352 131.757L321 148.208V203.793L384.162 224.847A10 10 0 0 1 391 234.334V261C391 266.522 386.522 271 381 271H361V351C361 356.522 356.522 361 351 361M138.227 111A9.96 9.96 0 0 1 132.098 108.896C127.737 105.507 126.949 99.225 130.337 94.864 156.936 60.633 197.271 41 241 41H244.255C249.778 41 254.255 45.477 254.255 51S249.778 61 244.255 61H241C203.491 61 168.913 77.816 146.13 107.136A9.99 9.99 0 0 1 138.227 111" fill="#46a3ff" data-fill-palette-color="accent"></path></g><g fill="#46a3ff" data-fill-palette-color="accent"><path d="M400.999 251A10 10 0 0 1 397.838 250.487L307.838 220.487A10 10 0 0 1 301 211V141A10 10 0 0 1 307.838 131.513L397.838 101.513A10 10 0 0 1 411 111V241A10 10 0 0 1 400.999 251M321 203.792L391 227.125V124.874L321 148.207z" fill="#46a3ff" data-fill-palette-color="accent"></path></g></g><g fill="#46a3ff" data-fill-palette-color="accent"><path d="M451 251H401C395.478 251 391 246.523 391 241V111C391 105.477 395.478 101 401 101H451C456.522 101 461 105.477 461 111V241C461 246.523 456.522 251 451 251M411 231H441V121H411z" fill="#46a3ff" data-fill-palette-color="accent"></path></g><g fill="#46a3ff" data-fill-palette-color="accent"><path d="M401 211H371C365.478 211 361 206.523 361 201V151C361 145.477 365.478 141 371 141H401C406.522 141 411 145.477 411 151S406.522 161 401 161H381V191H401C406.522 191 411 195.477 411 201S406.522 211 401 211" fill="#46a3ff" data-fill-palette-color="accent"></path></g><rect x="191" y="251" width="20" height="20" fill="#46a3ff" data-fill-palette-color="accent"></rect><rect x="221" y="251" width="20" height="20" fill="#46a3ff" data-fill-palette-color="accent"></rect><rect x="251" y="251" width="20" height="20" fill="#46a3ff" data-fill-palette-color="accent"></rect></g></g></svg></g></svg></g><g></g></svg></g></svg></g></svg></g><path d="M0 41.215L0 1 208.924 1 208.924 41.215 206.746 41.215 206.746 3.178 2.178 3.178 2.178 41.215 0 41.215M0 205.985L0 246.2 208.924 246.2 208.924 205.985 206.746 205.985 206.746 244.022 2.178 244.022 2.178 205.985 0 205.985" fill="#ffffff" stroke="transparent" data-fill-palette-color="tertiary"></path></svg></g><defs></defs></svg><rect width="208.92388028933786" height="247.2" fill="none" stroke="none" visibility="hidden"></rect></g></svg></g></svg>